<svg xmlns="http://www.w3.org/2000/svg" xmlns:xlink="http://www.w3.org/1999/xlink" style="width: 100%; height: 100%" viewBox="0 0 164 160" preserveAspectRatio="none" width="164" height="160"><defs><svg width="164" height="160" fill="none" xmlns="http://www.w3.org/2000/svg" id="svg1448053486_2032"><g clip-path="url(#svg1448053486_2032_a)" fill="none"><path d="M81.683 0C36.576 0 0 36.676 0 81.919c0 36.194 23.405 66.901 55.86 77.733 4.082.758 5.581-1.777 5.581-3.941 0-1.953-.076-8.407-.11-15.252-22.726 4.956-27.52-9.665-27.52-9.665-3.716-9.469-9.07-11.986-9.07-11.986-7.41-5.085.559-4.981.559-4.981 8.202.579 12.521 8.442 12.521 8.442 7.285 12.524 19.109 8.903 23.77 6.811.733-5.296 2.85-8.909 5.186-10.954-18.143-2.072-37.215-9.097-37.215-40.485 0-8.944 3.19-16.252 8.416-21.989-.848-2.063-3.644-10.395.791-21.678 0 0 6.86-2.202 22.469 8.397 6.515-1.816 13.503-2.726 20.445-2.757 6.942.031 13.935.941 20.463 2.757 15.591-10.6 22.44-8.398 22.44-8.398 4.446 11.284 1.649 19.616.801 21.68 5.237 5.736 8.406 13.044 8.406 21.988 0 31.463-19.108 38.391-37.297 40.419 2.93 2.542 5.54 7.528 5.54 15.17 0 10.961-.095 19.783-.095 22.481 0 2.18 1.471 4.734 5.612 3.93 32.437-10.844 55.812-41.54 55.812-77.722C163.365 36.676 126.794 0 81.683 0Z" fill="#FFFFFF"></path><path d="M30.593 116.696c-.18.406-.819.529-1.4.25-.592-.268-.925-.823-.733-1.231.176-.419.815-.536 1.407-.255.593.267.932.827.726 1.236Zm4.018 3.595c-.39.362-1.151.194-1.668-.378-.534-.572-.634-1.335-.24-1.703.403-.362 1.141-.193 1.677.379.534.578.638 1.336.23 1.703m2.758 4.599c-.501.349-1.32.022-1.826-.707-.5-.727-.5-1.601.011-1.951.508-.351 1.314-.036 1.826.687.5.741.5 1.615-.012 1.972m4.662 5.327c-.448.495-1.401.363-2.1-.313-.713-.661-.912-1.598-.463-2.093.453-.496 1.412-.357 2.115.313.71.659.925 1.604.448 2.093Zm6.024 1.799c-.196.641-1.115.933-2.04.661-.924-.281-1.529-1.033-1.342-1.681.192-.646 1.114-.95 2.047-.658.922.279 1.527 1.025 1.335 1.678Zm6.858.763c.023.676-.762 1.236-1.733 1.248-.977.021-1.767-.525-1.777-1.19 0-.682.766-1.237 1.743-1.253.97-.02 1.767.523 1.767 1.195Zm6.735-.259c.117.659-.559 1.336-1.523 1.516-.948.174-1.825-.233-1.947-.887-.117-.675.57-1.352 1.517-1.527.966-.169 1.83.228 1.953.898Z" fill="#161614"></path></g><defs><clipPath id="svg1448053486_2032_a"><path fill="#fff" d="M0 0h164v160H0z"></path></clipPath></defs></svg></defs><use href="#svg1448053486_2032"></use></svg>