<svg xmlns="http://www.w3.org/2000/svg" xmlns:xlink="http://www.w3.org/1999/xlink" style="width: 100%; height: 100%" width="24"  height="24" ><defs><svg xmlns="http://www.w3.org/2000/svg" xlink="http://www.w3.org/1999/xlink" viewBox="0 0 24 24" id="svg29100594"><path d="M 0 0 L 24 0 L 24 24 L 0 24 Z" fill="#000000" fill-opacity="0"></path><path d="M 9 12 C 9 10.343 10.343 9 12 9 C 13.657 9 15 10.343 15 12 C 15 13.657 13.657 15 12 15 C 10.343 15 9 13.657 9 12 Z" fill="#1C1C1C"></path><path d="M 16.125 2.625 L 7.875 2.625 C 4.976 2.625 2.625 4.976 2.625 7.875 L 2.625 16.125 C 2.625 19.024 4.976 21.375 7.875 21.375 L 16.125 21.375 C 19.024 21.375 21.375 19.024 21.375 16.125 L 21.375 7.875 C 21.375 4.976 19.024 2.625 16.125 2.625 Z M 12 16.5 C 9.515 16.5 7.5 14.485 7.5 12 C 7.5 9.515 9.515 7.5 12 7.5 C 14.485 7.5 16.5 9.515 16.5 12 C 16.5 14.485 14.485 16.5 12 16.5 Z M 16.875 8.25 C 16.254 8.25 15.75 7.746 15.75 7.125 C 15.75 6.504 16.254 6 16.875 6 C 17.496 6 18 6.504 18 7.125 C 18 7.746 17.496 8.25 16.875 8.25 Z" fill="#1C1C1C"></path></svg></defs><use href="#svg29100594"></use></svg>