<svg xmlns="http://www.w3.org/2000/svg" xmlns:xlink="http://www.w3.org/1999/xlink" style="width: 100%; height: 100%" viewBox="0 0 150 160" preserveAspectRatio="none" width="150" height="160"><defs><svg width="150" height="160" fill="none" xmlns="http://www.w3.org/2000/svg" id="svg-759328427_2297"><g clip-path="url(#svg-759328427_2297_a)" fill="#FFFFFF"><path d="M53.599 5.025C29.169 6.836 8.402 8.503 7.425 8.698c-2.737.489-5.228 2.35-6.4 4.8L0 15.653l.099 51.372.145 51.371 1.564 3.184c.88 1.762 6.84 9.99 13.34 18.46 12.85 16.699 13.777 17.631 18.663 18.12 1.418.146 12.069-.343 23.6-1.028a7883.259 7883.259 0 0 1 41.29-2.496c47.588-2.896 45.144-2.651 47.878-5.001 3.421-2.84 3.177 1.811 3.322-60.625.099-52.939.05-56.414-.732-58.03-.927-1.812-2.59-3.085-24.284-18.365C110.374 2.43 109.348 1.891 102.847 1.792c-2.685-.096-24.868 1.371-49.248 3.233Zm54.918 6.708c2.052.929 17.054 11.409 19.251 13.418.587.589.781 1.078.488 1.372-.683.589-93.522 6.123-96.207 5.73-1.22-.195-3.028-.93-4.054-1.617-4.252-2.89-14.804-11.558-14.804-12.192 0-1.666-.343-1.666 41.044-4.652a2819.14 2819.14 0 0 0 28.83-2.155c17.146-1.372 22.279-1.323 25.452.096Zm29.512 26.788c.683.684 1.27 2.007 1.465 3.28.145 1.176.244 23.115.145 48.677-.145 43.876-.194 46.62-1.026 47.893-.488.784-1.464 1.617-2.2 1.861-2.048.833-99.33 6.368-101.332 5.779-.927-.244-2.2-1.028-2.883-1.712l-1.175-1.273-.145-47.305c-.099-33.202 0-47.894.393-49.216.293-.979 1.026-2.156 1.662-2.546.88-.588 6.647-1.078 26.484-2.252 13.927-.783 35.473-2.105 47.836-2.84 29.408-1.814 29.312-1.814 30.776-.346Z" fill="#FFFFFF"></path><path d="M111.888 54.728c-5.278.344-9.968.834-10.506 1.128-1.613.833-2.59 2.205-2.784 3.772-.145 1.616.343 1.811 5.618 2.45l2.295.294v20.91c0 12.437-.194 20.665-.438 20.421-.245-.294-7.181-10.87-15.441-23.506-8.257-12.681-15.098-23.115-15.197-23.21-.098-.1-5.472.194-11.92.637-7.917.539-12.265 1.028-13.145 1.517-1.419.735-2.982 3.33-2.982 5.045 0 1.029 1.857 1.567 5.766 1.567h2.051v60.136l-3.321 1.028c-2.59.784-3.47 1.273-3.91 2.252-.781 1.666-.731 3.183.05 3.183.294 0 5.816-.343 12.166-.734 12.557-.734 13.972-1.077 15.292-3.673.392-.783.732-1.616.732-1.861 0-.195-1.709-.783-3.763-1.273-2.102-.489-4.203-.978-4.642-1.077-.83-.245-.88-1.763-.88-22.821V78.336l14.853 23.36c15.586 24.484 17.542 27.278 19.937 28.501 2.982 1.567 10.555.489 14.365-2.007l1.174-.734.099-33.397.145-33.446 2.59-.49c3.077-.588 4.496-2.007 4.496-4.456 0-1.567-.099-1.666-1.564-1.617-.874.04-5.908.335-11.136.678Z" fill="#FFFFFF"></path></g><defs><clipPath id="svg-759328427_2297_a"><path fill="#fff" d="M0 0h150v160H0z"></path></clipPath></defs></svg></defs><use href="#svg-759328427_2297"></use></svg>