<svg xmlns="http://www.w3.org/2000/svg" xmlns:xlink="http://www.w3.org/1999/xlink" style="width: 100%; height: 100%" viewBox="0 0 2500 2500" preserveAspectRatio="none" width="2500" height="2500"><defs><svg height="2500" width="2500" xmlns="http://www.w3.org/2000/svg" viewBox="0 49.4 512 399.42" id="svg-1750462618_698"><g fill="none" fill-rule="evenodd"><g fill-rule="nonzero" fill="none"><path d="M34.91 448.818h81.454V251L0 163.727V413.91c0 19.287 15.622 34.91 34.91 34.91z" fill="#4285F4"></path><path d="M395.636 448.818h81.455c19.287 0 34.909-15.622 34.909-34.909V163.727L395.636 251z" fill="#34A853"></path><path d="M395.636 99.727V251L512 163.727v-46.545c0-43.142-49.25-67.782-83.782-41.891z" fill="#FBBC04"></path></g><path d="M116.364 251V99.727L256 204.455 395.636 99.727V251L256 355.727z" fill="#EA4335"></path><path d="M0 117.182v46.545L116.364 251V99.727L83.782 75.291C49.25 49.4 0 74.04 0 117.18z" fill="#C5221F" fill-rule="nonzero"></path></g></svg></defs><use href="#svg-1750462618_698"></use></svg>