<svg xmlns="http://www.w3.org/2000/svg" xmlns:xlink="http://www.w3.org/1999/xlink" style="width: 100%; height: 100%" width="24"  height="24" ><defs><svg xmlns="http://www.w3.org/2000/svg" xlink="http://www.w3.org/1999/xlink" viewBox="0 0 24 24" id="svg3386787699"><path d="M 0 0 L 24 0 L 24 24 L 0 24 Z" fill="#000000" fill-opacity="0"></path><path d="M 19.365 21.44 L 4.795 21.44 C 3.572 21.44 2.58 20.448 2.58 19.225 L 2.58 4.655 C 2.58 3.432 3.572 2.44 4.795 2.44 L 19.365 2.44 C 20.588 2.44 21.58 3.432 21.58 4.655 L 21.58 19.225 C 21.58 20.448 20.588 21.44 19.365 21.44 Z" fill="#1C1C1C"></path><path d="M 5.398 6.097 L 10.504 12.925 L 5.365 18.476 L 6.522 18.476 L 11.021 13.616 L 14.656 18.476 L 18.592 18.476 L 13.198 11.264 L 17.981 6.097 L 16.825 6.097 L 12.681 10.573 L 9.333 6.097 Z M 7.098 6.949 L 8.907 6.949 L 16.891 17.624 L 15.083 17.624 Z" fill="#FFFFFF"></path></svg></defs><use href="#svg3386787699"></use></svg>