<svg xmlns="http://www.w3.org/2000/svg" xmlns:xlink="http://www.w3.org/1999/xlink" style="width: 100%; height: 100%" viewBox="0 0 2500 2157" preserveAspectRatio="none" width="2500" height="2157"><defs><svg xmlns="http://www.w3.org/2000/svg" viewBox="0 0 2500 2157" style="enable-background:new 0 0 2500 2157" space="preserve" id="svg-1420836820_721"><path d="M2498.5 499c-11.2 242.7-181.1 575.1-509.7 997.1-339.8 440.6-627.4 661-862.6 661-145.6 0-268.9-134.4-369.7-403.3l-201.6-739.4C480.1 745.4 399.8 611 314 611c-18.7 0-84 39.2-196.1 117.6L.3 577.4C122.5 470 243.8 361.7 364.4 252.5c164.3-141.9 287.5-216.6 369.7-224 194.2-18.7 313.7 113.9 358.5 397.7 48.5 306.2 82.2 496.7 100.8 571.3 56 253.9 117.6 380.9 184.8 380.9 52.3 0 130.7-82.2 235.3-246.5 104.6-164.3 160.6-289.4 168-375.3 14.9-141.9-41.1-212.9-168-212.9-59.7 0-121.4 13.1-184.8 39.2C1551.9 183.3 1787.2-10.8 2134.5.4c257.6 7.5 378.9 173.7 364 498.6z" style="" fill="#1AB7EA"></path></svg></defs><use href="#svg-1420836820_721"></use></svg>